<?xml version="1.0" encoding="utf-8"?>
<!-- Generator: Adobe Illustrator 23.0.6, SVG Export Plug-In . SVG Version: 6.00 Build 0)  -->
<svg version="1.1" id="Layer_1" xmlns="http://www.w3.org/2000/svg" xmlns:xlink="http://www.w3.org/1999/xlink" x="0px" y="0px"
	 viewBox="0 0 25.7 25.7" style="enable-background:new 0 0 25.7 25.7;" xml:space="preserve">
<style type="text/css">
	.st0{fill-rule:evenodd;clip-rule:evenodd;fill:#FFFFFF;}
</style>
<path id="Instagram" class="st0" d="M12.9,2.3c3.4,0,3.8,0,5.2,0.1c0.8,0,1.6,0.2,2.4,0.4c0.6,0.2,1.1,0.5,1.5,1
	c0.4,0.4,0.8,0.9,1,1.5c0.3,0.8,0.4,1.6,0.4,2.4c0.1,1.4,0.1,1.8,0.1,5.2s0,3.8-0.1,5.2c0,0.8-0.2,1.6-0.4,2.4
	c-0.4,1.1-1.3,2-2.4,2.4c-0.8,0.3-1.6,0.4-2.4,0.4c-1.4,0.1-1.8,0.1-5.2,0.1s-3.8,0-5.2-0.1c-0.8,0-1.6-0.2-2.4-0.4
	c-1.1-0.4-2-1.3-2.4-2.4c-0.3-0.8-0.4-1.6-0.4-2.4c-0.1-1.4-0.1-1.8-0.1-5.2s0-3.8,0.1-5.2c0-0.8,0.2-1.6,0.4-2.4
	c0.4-1.1,1.3-2,2.4-2.4C6,2.6,6.9,2.4,7.7,2.4C9,2.3,9.4,2.3,12.9,2.3 M12.9,0C9.4,0,8.9,0,7.6,0.1c-1.1,0-2.1,0.2-3.1,0.6
	c-1.7,0.7-3.1,2-3.8,3.8c-0.4,1-0.6,2.1-0.6,3.1C0,8.9,0,9.4,0,12.9s0,3.9,0.1,5.3c0,1.1,0.2,2.1,0.6,3.1c0.7,1.7,2,3.1,3.8,3.8
	c1,0.4,2.1,0.6,3.1,0.6c1.4,0.1,1.8,0.1,5.3,0.1s3.9,0,5.3-0.1c1.1,0,2.1-0.2,3.1-0.6c1.7-0.7,3.1-2,3.8-3.8c0.4-1,0.6-2.1,0.6-3.1
	c0.1-1.4,0.1-1.8,0.1-5.3s0-3.9-0.1-5.3c0-1.1-0.2-2.1-0.6-3.1c-0.3-0.9-0.8-1.6-1.5-2.3c-0.6-0.7-1.4-1.2-2.3-1.5
	c-1-0.4-2.1-0.6-3.1-0.6C16.8,0,16.4,0,12.9,0C12.9,0,12.9,0,12.9,0z M12.9,6.3c-3.6,0-6.6,3-6.6,6.6s3,6.6,6.6,6.6s6.6-3,6.6-6.6
	c0,0,0,0,0,0C19.5,9.2,16.5,6.3,12.9,6.3L12.9,6.3z M12.9,17.1c-2.4,0-4.3-1.9-4.3-4.3c0-2.4,1.9-4.3,4.3-4.3c2.4,0,4.3,1.9,4.3,4.3
	c0,0,0,0,0,0C17.2,15.2,15.2,17.1,12.9,17.1C12.9,17.1,12.9,17.1,12.9,17.1L12.9,17.1z M21.3,6c0,0.9-0.7,1.5-1.5,1.5
	c-0.9,0-1.5-0.7-1.5-1.5c0-0.9,0.7-1.5,1.5-1.5C20.6,4.4,21.3,5.1,21.3,6C21.3,6,21.3,6,21.3,6L21.3,6z"/>
</svg>
